<svg xmlns="http://www.w3.org/2000/svg" width="32" height="32" viewBox="0 0 410 404"><defs><linearGradient id="g" x1="0" x2="1" y1="0" y2="1"><stop stop-color="#41d1ff"/><stop offset="1" stop-color="#bd34fe"/></linearGradient><linearGradient id="g2" x1="0" x2="1" y1="0" y2="1"><stop stop-color="#ffea83"/><stop offset=".083" stop-color="#ffdd35"/><stop offset="1" stop-color="#ffa800"/></linearGradient></defs><path fill="url(#g)" d="M399.641 59.525L215.643 388.545c-7.674 13.498-26.812 13.526-34.52.051L10.38 59.558c-7.981-13.824 2.676-31.155 17.44-29.109l177.462 24.659a20 20 0 0 0 5.61-.001l170.83-24.628c14.722-2.124 24.377 14.94 16.45 28.762Z"/><path fill="url(#g2)" d="M292.965.002L156.801 22.673a10 10 0 0 0-8.375 8.343l-14.89 99.817a10 10 0 0 0 11.554 11.375l39.875-5.642c7.112-.998 13.175 5.459 11.634 12.51l-11.865 55.883c-1.62 7.636 5.055 14.594 12.522 13.348l24.627-4.167c7.462-1.246 14.144 5.308 12.534 12.949l-18.924 91.202c-2.396 11.547 13.3 17.588 19.806 7.313l3.162-5.022 116.937-235.07c3.716-7.461-2.41-15.926-10.656-14.646l-41.085 6.394c-7.518 1.171-13.982-5.324-12.425-12.838l19.886-99.93c1.559-7.829-4.834-14.862-12.438-13.59Z"/></svg>